<?xml version="1.0" encoding="utf-8"?>
<!-- Generator: Adobe Illustrator 27.5.0, SVG Export Plug-In . SVG Version: 6.00 Build 0)  -->
<svg version="1.1" id="Layer_1" xmlns="http://www.w3.org/2000/svg" xmlns:xlink="http://www.w3.org/1999/xlink" x="0px" y="0px"
	 viewBox="0 0 288 288" style="enable-background:new 0 0 288 288;" xml:space="preserve">
<g>
	<rect style="fill:#FFFFFF;" width="288" height="288"/>
	<g>
		<g>
			<linearGradient id="SVGID_1_" gradientUnits="userSpaceOnUse" x1="136.5573" y1="59.8537" x2="136.5573" y2="180.7017">
				<stop  offset="0" style="stop-color:#FFFFFF"/>
				<stop  offset="0.1529" style="stop-color:#DBDBDB"/>
				<stop  offset="0.4937" style="stop-color:#818181"/>
				<stop  offset="0.9453" style="stop-color:#000000"/>
			</linearGradient>
			<path style="fill:url(#SVGID_1_);" d="M161.793,114.636c-0.562,0.302-0.914,0.888-0.914,1.527v63.242h-36.478v-62.171
				c0-0.457-0.18-0.895-0.502-1.22c-0.46-0.464-1.025-1.016-1.668-1.643c-5.203-5.078-17.387-16.968-15.368-25.266
				c0.785-3.227,3.788-5.787,8.895-7.638v10.621c0,0.957,0.776,1.733,1.733,1.733c0.957,0,1.733-0.776,1.733-1.733V40.154
				c0-2.54,2.067-4.607,4.607-4.607c2.541,0,4.607,2.067,4.607,4.607V71.55v7.439v0.089c0,0.957,0.776,1.733,1.733,1.733
				c0.957,0,1.733-0.776,1.733-1.733v-0.089V71.55c0-2.54,2.067-4.607,4.607-4.607c2.541,0,4.607,2.067,4.607,4.607v1.072v6.412
				v1.072c0,0.957,0.776,1.732,1.733,1.732c0.957,0,1.733-0.776,1.733-1.732v-1.072v-6.412c0-2.54,2.066-4.607,4.607-4.607
				c2.54,0,4.607,2.067,4.607,4.607v2.322v6.518c0,0.957,0.776,1.733,1.732,1.733c0.957,0,1.733-0.776,1.733-1.733v-6.518
				c0-2.54,2.066-4.607,4.607-4.607c2.541,0,4.607,2.067,4.607,4.607v29.287c0,0,0,0,0,0.001
				C166.475,111.92,161.971,114.536,161.793,114.636z"/>
			<g>
				<g>
					<g>
						
							<linearGradient id="SVGID_00000025414321321181464460000017193407372959791284_" gradientUnits="userSpaceOnUse" x1="165.4099" y1="106.4946" x2="165.4099" y2="172.6159">
							<stop  offset="0.0547" style="stop-color:#0068CE"/>
							<stop  offset="0.093" style="stop-color:#1272D1"/>
							<stop  offset="0.2393" style="stop-color:#5097DD"/>
							<stop  offset="0.3843" style="stop-color:#85B7E8"/>
							<stop  offset="0.5245" style="stop-color:#B1D1F0"/>
							<stop  offset="0.6589" style="stop-color:#D3E5F7"/>
							<stop  offset="0.786" style="stop-color:#EBF3FB"/>
							<stop  offset="0.9029" style="stop-color:#FAFCFE"/>
							<stop  offset="1" style="stop-color:#FFFFFF"/>
						</linearGradient>
						<path style="fill:url(#SVGID_00000025414321321181464460000017193407372959791284_);" d="M164.345,186.556V117.08
							c1.798-1.367,5.596-5.164,5.596-12.849c0-0.957-0.776-1.733-1.733-1.733c-0.957,0-1.732,0.776-1.732,1.733
							c0,7.689-4.504,10.304-4.682,10.404c-0.562,0.302-0.914,0.888-0.914,1.527v70.393H164.345z"/>
						
							<linearGradient id="SVGID_00000053532646821470524790000014509259625163885211_" gradientUnits="userSpaceOnUse" x1="113.7895" y1="106.4946" x2="113.7895" y2="172.6159">
							<stop  offset="0.0547" style="stop-color:#0068CE"/>
							<stop  offset="0.093" style="stop-color:#1272D1"/>
							<stop  offset="0.2393" style="stop-color:#5097DD"/>
							<stop  offset="0.3843" style="stop-color:#85B7E8"/>
							<stop  offset="0.5245" style="stop-color:#B1D1F0"/>
							<stop  offset="0.6589" style="stop-color:#D3E5F7"/>
							<stop  offset="0.786" style="stop-color:#EBF3FB"/>
							<stop  offset="0.9029" style="stop-color:#FAFCFE"/>
							<stop  offset="1" style="stop-color:#FFFFFF"/>
						</linearGradient>
						<path style="fill:url(#SVGID_00000053532646821470524790000014509259625163885211_);" d="M119.811,116.851
							c0.41,0.4,0.788,0.769,1.126,1.103v68.602h3.465v-69.322c0-0.457-0.18-0.895-0.502-1.22c-0.46-0.464-1.025-1.016-1.668-1.643
							c-5.203-5.078-17.387-16.968-15.368-25.266c0.87-3.575,4.435-6.34,10.597-8.218c0.915-0.279,1.431-1.247,1.152-2.162
							c-0.279-0.916-1.247-1.431-2.162-1.152c-7.415,2.261-11.773,5.865-12.953,10.713
							C101.01,98.503,113.708,110.895,119.811,116.851z"/>
					</g>
					<g>
						
							<linearGradient id="SVGID_00000145039323037047879660000002490020108072478636_" gradientUnits="userSpaceOnUse" x1="123.8297" y1="106.4946" x2="123.8297" y2="172.616">
							<stop  offset="0.0547" style="stop-color:#0068CE"/>
							<stop  offset="0.093" style="stop-color:#1272D1"/>
							<stop  offset="0.2393" style="stop-color:#5097DD"/>
							<stop  offset="0.3843" style="stop-color:#85B7E8"/>
							<stop  offset="0.5245" style="stop-color:#B1D1F0"/>
							<stop  offset="0.6589" style="stop-color:#D3E5F7"/>
							<stop  offset="0.786" style="stop-color:#EBF3FB"/>
							<stop  offset="0.9029" style="stop-color:#FAFCFE"/>
							<stop  offset="1" style="stop-color:#FFFFFF"/>
						</linearGradient>
						<path style="fill:url(#SVGID_00000145039323037047879660000002490020108072478636_);" d="M117.49,93.82
							c-0.957,0-1.732-0.776-1.732-1.732V40.154c0-4.451,3.621-8.072,8.072-8.072c4.451,0,8.072,3.621,8.072,8.072v38.925
							c0,0.957-0.776,1.733-1.732,1.733c-0.957,0-1.732-0.776-1.732-1.733V40.154c0-2.541-2.067-4.607-4.607-4.607
							c-2.54,0-4.607,2.067-4.607,4.607v51.934C119.222,93.045,118.447,93.82,117.49,93.82z"/>
					</g>
					<g>
						
							<linearGradient id="SVGID_00000023992224824009550180000018282114718630559618_" gradientUnits="userSpaceOnUse" x1="136.5092" y1="106.4946" x2="136.5092" y2="172.6157">
							<stop  offset="0.0547" style="stop-color:#0068CE"/>
							<stop  offset="0.093" style="stop-color:#1272D1"/>
							<stop  offset="0.2393" style="stop-color:#5097DD"/>
							<stop  offset="0.3843" style="stop-color:#85B7E8"/>
							<stop  offset="0.5245" style="stop-color:#B1D1F0"/>
							<stop  offset="0.6589" style="stop-color:#D3E5F7"/>
							<stop  offset="0.786" style="stop-color:#EBF3FB"/>
							<stop  offset="0.9029" style="stop-color:#FAFCFE"/>
							<stop  offset="1" style="stop-color:#FFFFFF"/>
						</linearGradient>
						<path style="fill:url(#SVGID_00000023992224824009550180000018282114718630559618_);" d="M142.849,80.767
							c-0.957,0-1.732-0.776-1.732-1.732V71.55c0-2.54-2.067-4.607-4.607-4.607c-2.54,0-4.607,2.067-4.607,4.607v7.439
							c0,0.957-0.776,1.732-1.732,1.732c-0.957,0-1.732-0.776-1.732-1.732V71.55c0-4.451,3.621-8.072,8.072-8.072
							c4.451,0,8.072,3.621,8.072,8.072v7.484C144.581,79.991,143.806,80.767,142.849,80.767z"/>
					</g>
					<g>
						
							<linearGradient id="SVGID_00000119822838685224554350000010926501633594399625_" gradientUnits="userSpaceOnUse" x1="149.1886" y1="106.4946" x2="149.1886" y2="172.616">
							<stop  offset="0.0547" style="stop-color:#0068CE"/>
							<stop  offset="0.093" style="stop-color:#1272D1"/>
							<stop  offset="0.2393" style="stop-color:#5097DD"/>
							<stop  offset="0.3843" style="stop-color:#85B7E8"/>
							<stop  offset="0.5245" style="stop-color:#B1D1F0"/>
							<stop  offset="0.6589" style="stop-color:#D3E5F7"/>
							<stop  offset="0.786" style="stop-color:#EBF3FB"/>
							<stop  offset="0.9029" style="stop-color:#FAFCFE"/>
							<stop  offset="1" style="stop-color:#FFFFFF"/>
						</linearGradient>
						<path style="fill:url(#SVGID_00000119822838685224554350000010926501633594399625_);" d="M155.528,83.195
							c-0.957,0-1.732-0.776-1.732-1.733v-8.84c0-2.541-2.067-4.607-4.607-4.607c-2.54,0-4.607,2.067-4.607,4.607v7.483
							c0,0.957-0.776,1.732-1.733,1.732c-0.957,0-1.732-0.776-1.732-1.732v-7.483c0-4.451,3.621-8.072,8.072-8.072
							s8.072,3.621,8.072,8.072v8.84C157.261,82.419,156.485,83.195,155.528,83.195z"/>
					</g>
					<g>
						
							<linearGradient id="SVGID_00000173876873875652356340000005488817847774176407_" gradientUnits="userSpaceOnUse" x1="161.8681" y1="106.4948" x2="161.8681" y2="172.6162">
							<stop  offset="0.0547" style="stop-color:#0068CE"/>
							<stop  offset="0.093" style="stop-color:#1272D1"/>
							<stop  offset="0.2393" style="stop-color:#5097DD"/>
							<stop  offset="0.3843" style="stop-color:#85B7E8"/>
							<stop  offset="0.5245" style="stop-color:#B1D1F0"/>
							<stop  offset="0.6589" style="stop-color:#D3E5F7"/>
							<stop  offset="0.786" style="stop-color:#EBF3FB"/>
							<stop  offset="0.9029" style="stop-color:#FAFCFE"/>
							<stop  offset="1" style="stop-color:#FFFFFF"/>
						</linearGradient>
						<path style="fill:url(#SVGID_00000173876873875652356340000005488817847774176407_);" d="M168.208,105.964
							c-0.957,0-1.732-0.776-1.732-1.732V74.944c0-2.541-2.067-4.607-4.607-4.607c-2.54,0-4.607,2.067-4.607,4.607v6.518
							c0,0.957-0.776,1.733-1.732,1.733c-0.957,0-1.732-0.776-1.732-1.733v-6.518c0-4.451,3.621-8.072,8.072-8.072
							c4.451,0,8.072,3.621,8.072,8.072v29.288C169.94,105.188,169.165,105.964,168.208,105.964z"/>
					</g>
				</g>
				
					<linearGradient id="SVGID_00000033338715796710683200000007263088034804897445_" gradientUnits="userSpaceOnUse" x1="124.5876" y1="106.4942" x2="124.5876" y2="172.615">
					<stop  offset="0.0547" style="stop-color:#0068CE"/>
					<stop  offset="0.093" style="stop-color:#1272D1"/>
					<stop  offset="0.2393" style="stop-color:#5097DD"/>
					<stop  offset="0.3843" style="stop-color:#85B7E8"/>
					<stop  offset="0.5245" style="stop-color:#B1D1F0"/>
					<stop  offset="0.6589" style="stop-color:#D3E5F7"/>
					<stop  offset="0.786" style="stop-color:#EBF3FB"/>
					<stop  offset="0.9029" style="stop-color:#FAFCFE"/>
					<stop  offset="1" style="stop-color:#FFFFFF"/>
				</linearGradient>
				<path style="fill:url(#SVGID_00000033338715796710683200000007263088034804897445_);" d="M124.574,38.495
					c0.904,0.452,0.952,1.25,1.072,3.631c0.119,2.381,0.417,4.703,0.417,5.893c0,1.191-0.833,2.322-1.667,2.143
					c-0.833-0.178-1.429-1.131-1.25-2.798c0.178-1.667,0.417-3.869,0.298-5.238C123.324,40.757,123.502,37.96,124.574,38.495z"/>
			</g>
		</g>
		<g>
			
				<linearGradient id="SVGID_00000057839666762790414510000016643502267263823542_" gradientUnits="userSpaceOnUse" x1="86.6778" y1="134.5139" x2="86.6778" y2="221.4323">
				<stop  offset="0" style="stop-color:#FFFFFF"/>
				<stop  offset="0.1529" style="stop-color:#DBDBDB"/>
				<stop  offset="0.4937" style="stop-color:#818181"/>
				<stop  offset="0.9453" style="stop-color:#000000"/>
			</linearGradient>
			<path style="fill:url(#SVGID_00000057839666762790414510000016643502267263823542_);" d="M104.828,173.915
				c-0.405,0.217-0.657,0.639-0.657,1.098v45.486H77.935v-44.716c0-0.329-0.13-0.644-0.361-0.877c-0.331-0.334-0.737-0.73-1.2-1.182
				c-3.742-3.652-12.505-12.204-11.053-18.172c0.565-2.321,2.725-4.162,6.397-5.494v7.639c0,0.688,0.558,1.246,1.246,1.246
				s1.246-0.558,1.246-1.246v-37.353c0-1.827,1.487-3.314,3.314-3.314c1.827,0,3.314,1.486,3.314,3.314v22.582v5.35v0.064
				c0,0.688,0.558,1.246,1.246,1.246c0.688,0,1.246-0.558,1.246-1.246v-0.064v-5.35c0-1.827,1.486-3.314,3.314-3.314
				c1.827,0,3.314,1.486,3.314,3.314v0.771v4.612v0.771c0,0.688,0.558,1.246,1.246,1.246c0.688,0,1.246-0.558,1.246-1.246v-0.771
				v-4.612c0-1.827,1.486-3.314,3.314-3.314c1.827,0,3.314,1.486,3.314,3.314v1.67v4.688c0,0.688,0.558,1.246,1.246,1.246
				c0.688,0,1.246-0.558,1.246-1.246v-4.688c0-1.827,1.486-3.314,3.313-3.314c1.827,0,3.314,1.487,3.314,3.314v21.064
				c0,0,0,0,0,0.001C108.196,171.962,104.956,173.843,104.828,173.915z"/>
			<g>
				<g>
					<g>
						
							<linearGradient id="SVGID_00000034079786057591558680000008092377497124662446_" gradientUnits="userSpaceOnUse" x1="107.4298" y1="171.938" x2="107.4298" y2="228.5098">
							<stop  offset="0.0547" style="stop-color:#FF7300"/>
							<stop  offset="0.0785" style="stop-color:#FF7903"/>
							<stop  offset="0.3146" style="stop-color:#FFAC24"/>
							<stop  offset="0.4303" style="stop-color:#FFC030"/>
							<stop  offset="0.4843" style="stop-color:#FFCA51"/>
							<stop  offset="0.5814" style="stop-color:#FFDA85"/>
							<stop  offset="0.6767" style="stop-color:#FFE7B1"/>
							<stop  offset="0.7681" style="stop-color:#FFF2D3"/>
							<stop  offset="0.8545" style="stop-color:#FFF9EB"/>
							<stop  offset="0.934" style="stop-color:#FFFDFA"/>
							<stop  offset="1" style="stop-color:#FFFFFF"/>
						</linearGradient>
						<path style="fill:url(#SVGID_00000034079786057591558680000008092377497124662446_);" d="M106.664,225.643v-49.97
							c1.293-0.983,4.025-3.714,4.025-9.241c0-0.688-0.558-1.246-1.246-1.246s-1.246,0.558-1.246,1.246
							c0,5.53-3.24,7.411-3.368,7.483c-0.405,0.217-0.657,0.639-0.657,1.098v50.63H106.664z"/>
						
							<linearGradient id="SVGID_00000029017506105015561090000013324178251154563215_" gradientUnits="userSpaceOnUse" x1="70.3024" y1="171.9381" x2="70.3024" y2="228.5098">
							<stop  offset="0.0547" style="stop-color:#FF7300"/>
							<stop  offset="0.0785" style="stop-color:#FF7903"/>
							<stop  offset="0.3146" style="stop-color:#FFAC24"/>
							<stop  offset="0.4303" style="stop-color:#FFC030"/>
							<stop  offset="0.4843" style="stop-color:#FFCA51"/>
							<stop  offset="0.5814" style="stop-color:#FFDA85"/>
							<stop  offset="0.6767" style="stop-color:#FFE7B1"/>
							<stop  offset="0.7681" style="stop-color:#FFF2D3"/>
							<stop  offset="0.8545" style="stop-color:#FFF9EB"/>
							<stop  offset="0.934" style="stop-color:#FFFDFA"/>
							<stop  offset="1" style="stop-color:#FFFFFF"/>
						</linearGradient>
						<path style="fill:url(#SVGID_00000029017506105015561090000013324178251154563215_);" d="M74.633,175.508
							c0.295,0.288,0.567,0.553,0.809,0.793v49.342h2.492v-49.859c0-0.329-0.13-0.644-0.361-0.877
							c-0.331-0.334-0.737-0.73-1.2-1.182c-3.742-3.652-12.505-12.204-11.053-18.172c0.626-2.571,3.19-4.56,7.622-5.911
							c0.658-0.201,1.029-0.897,0.828-1.555c-0.201-0.658-0.897-1.029-1.555-0.828c-5.334,1.626-8.468,4.218-9.316,7.705
							C61.111,162.312,70.244,171.225,74.633,175.508z"/>
					</g>
					<g>
						
							<linearGradient id="SVGID_00000117639992698346286880000011583301000343148460_" gradientUnits="userSpaceOnUse" x1="77.5237" y1="171.938" x2="77.5237" y2="228.5096">
							<stop  offset="0.0547" style="stop-color:#FF7300"/>
							<stop  offset="0.0785" style="stop-color:#FF7903"/>
							<stop  offset="0.3146" style="stop-color:#FFAC24"/>
							<stop  offset="0.4303" style="stop-color:#FFC030"/>
							<stop  offset="0.4843" style="stop-color:#FFCA51"/>
							<stop  offset="0.5814" style="stop-color:#FFDA85"/>
							<stop  offset="0.6767" style="stop-color:#FFE7B1"/>
							<stop  offset="0.7681" style="stop-color:#FFF2D3"/>
							<stop  offset="0.8545" style="stop-color:#FFF9EB"/>
							<stop  offset="0.934" style="stop-color:#FFFDFA"/>
							<stop  offset="1" style="stop-color:#FFFFFF"/>
						</linearGradient>
						<path style="fill:url(#SVGID_00000117639992698346286880000011583301000343148460_);" d="M72.964,158.944
							c-0.688,0-1.246-0.558-1.246-1.246v-37.353c0-3.201,2.604-5.806,5.806-5.806s5.806,2.604,5.806,5.806v27.996
							c0,0.688-0.558,1.246-1.246,1.246c-0.688,0-1.246-0.558-1.246-1.246v-27.996c0-1.827-1.487-3.314-3.314-3.314
							c-1.827,0-3.314,1.486-3.314,3.314v37.353C74.21,158.386,73.652,158.944,72.964,158.944z"/>
					</g>
					<g>
						
							<linearGradient id="SVGID_00000163781946463593937660000016652459500972647328_" gradientUnits="userSpaceOnUse" x1="86.6432" y1="171.9379" x2="86.6432" y2="228.5095">
							<stop  offset="0.0547" style="stop-color:#FF7300"/>
							<stop  offset="0.0785" style="stop-color:#FF7903"/>
							<stop  offset="0.3146" style="stop-color:#FFAC24"/>
							<stop  offset="0.4303" style="stop-color:#FFC030"/>
							<stop  offset="0.4843" style="stop-color:#FFCA51"/>
							<stop  offset="0.5814" style="stop-color:#FFDA85"/>
							<stop  offset="0.6767" style="stop-color:#FFE7B1"/>
							<stop  offset="0.7681" style="stop-color:#FFF2D3"/>
							<stop  offset="0.8545" style="stop-color:#FFF9EB"/>
							<stop  offset="0.934" style="stop-color:#FFFDFA"/>
							<stop  offset="1" style="stop-color:#FFFFFF"/>
						</linearGradient>
						<path style="fill:url(#SVGID_00000163781946463593937660000016652459500972647328_);" d="M91.203,149.555
							c-0.688,0-1.246-0.558-1.246-1.246v-5.382c0-1.827-1.487-3.314-3.314-3.314c-1.827,0-3.314,1.486-3.314,3.314v5.35
							c0,0.688-0.558,1.246-1.246,1.246c-0.688,0-1.246-0.558-1.246-1.246v-5.35c0-3.201,2.604-5.806,5.806-5.806
							c3.201,0,5.806,2.604,5.806,5.806v5.382C92.449,148.997,91.891,149.555,91.203,149.555z"/>
					</g>
					<g>
						
							<linearGradient id="SVGID_00000099629259288141336620000016439929426269231292_" gradientUnits="userSpaceOnUse" x1="95.7627" y1="171.9379" x2="95.7627" y2="228.5094">
							<stop  offset="0.0547" style="stop-color:#FF7300"/>
							<stop  offset="0.0785" style="stop-color:#FF7903"/>
							<stop  offset="0.3146" style="stop-color:#FFAC24"/>
							<stop  offset="0.4303" style="stop-color:#FFC030"/>
							<stop  offset="0.4843" style="stop-color:#FFCA51"/>
							<stop  offset="0.5814" style="stop-color:#FFDA85"/>
							<stop  offset="0.6767" style="stop-color:#FFE7B1"/>
							<stop  offset="0.7681" style="stop-color:#FFF2D3"/>
							<stop  offset="0.8545" style="stop-color:#FFF9EB"/>
							<stop  offset="0.934" style="stop-color:#FFFDFA"/>
							<stop  offset="1" style="stop-color:#FFFFFF"/>
						</linearGradient>
						<path style="fill:url(#SVGID_00000099629259288141336620000016439929426269231292_);" d="M100.323,151.301
							c-0.688,0-1.246-0.558-1.246-1.246v-6.358c0-1.827-1.487-3.314-3.314-3.314c-1.827,0-3.314,1.486-3.314,3.314v5.382
							c0,0.688-0.558,1.246-1.246,1.246c-0.688,0-1.246-0.558-1.246-1.246v-5.382c0-3.201,2.604-5.806,5.806-5.806
							s5.806,2.605,5.806,5.806v6.358C101.569,150.744,101.011,151.301,100.323,151.301z"/>
					</g>
					<g>
						
							<linearGradient id="SVGID_00000026884700593619862500000009068749488772601506_" gradientUnits="userSpaceOnUse" x1="104.8822" y1="171.938" x2="104.8822" y2="228.5096">
							<stop  offset="0.0547" style="stop-color:#FF7300"/>
							<stop  offset="0.0785" style="stop-color:#FF7903"/>
							<stop  offset="0.3146" style="stop-color:#FFAC24"/>
							<stop  offset="0.4303" style="stop-color:#FFC030"/>
							<stop  offset="0.4843" style="stop-color:#FFCA51"/>
							<stop  offset="0.5814" style="stop-color:#FFDA85"/>
							<stop  offset="0.6767" style="stop-color:#FFE7B1"/>
							<stop  offset="0.7681" style="stop-color:#FFF2D3"/>
							<stop  offset="0.8545" style="stop-color:#FFF9EB"/>
							<stop  offset="0.934" style="stop-color:#FFFDFA"/>
							<stop  offset="1" style="stop-color:#FFFFFF"/>
						</linearGradient>
						<path style="fill:url(#SVGID_00000026884700593619862500000009068749488772601506_);" d="M109.442,167.678
							c-0.688,0-1.246-0.558-1.246-1.246v-21.065c0-1.827-1.486-3.314-3.314-3.314s-3.314,1.486-3.314,3.314v4.688
							c0,0.688-0.558,1.246-1.246,1.246c-0.688,0-1.246-0.558-1.246-1.246v-4.688c0-3.201,2.604-5.806,5.806-5.806
							s5.806,2.605,5.806,5.806v21.065C110.688,167.12,110.13,167.678,109.442,167.678z"/>
					</g>
				</g>
				
					<linearGradient id="SVGID_00000159465204851154370890000013833732357552613515_" gradientUnits="userSpaceOnUse" x1="78.0688" y1="171.9381" x2="78.0688" y2="228.5098">
					<stop  offset="0.0547" style="stop-color:#FF7300"/>
					<stop  offset="0.0785" style="stop-color:#FF7903"/>
					<stop  offset="0.3146" style="stop-color:#FFAC24"/>
					<stop  offset="0.4303" style="stop-color:#FFC030"/>
					<stop  offset="0.4843" style="stop-color:#FFCA51"/>
					<stop  offset="0.5814" style="stop-color:#FFDA85"/>
					<stop  offset="0.6767" style="stop-color:#FFE7B1"/>
					<stop  offset="0.7681" style="stop-color:#FFF2D3"/>
					<stop  offset="0.8545" style="stop-color:#FFF9EB"/>
					<stop  offset="0.934" style="stop-color:#FFFDFA"/>
					<stop  offset="1" style="stop-color:#FFFFFF"/>
				</linearGradient>
				<path style="fill:url(#SVGID_00000159465204851154370890000013833732357552613515_);" d="M78.059,119.152
					c0.65,0.325,0.685,0.899,0.771,2.612c0.086,1.713,0.3,3.382,0.3,4.239s-0.599,1.67-1.199,1.541
					c-0.599-0.128-1.028-0.813-0.899-2.012c0.129-1.199,0.3-2.783,0.214-3.768C77.16,120.779,77.288,118.767,78.059,119.152z"/>
			</g>
		</g>
		<g>
			
				<linearGradient id="SVGID_00000041980528398664436920000017857940777693214141_" gradientUnits="userSpaceOnUse" x1="195.2724" y1="134.5139" x2="195.2724" y2="221.4323">
				<stop  offset="0" style="stop-color:#FFFFFF"/>
				<stop  offset="0.1529" style="stop-color:#DBDBDB"/>
				<stop  offset="0.4937" style="stop-color:#818181"/>
				<stop  offset="0.9453" style="stop-color:#000000"/>
			</linearGradient>
			<path style="fill:url(#SVGID_00000041980528398664436920000017857940777693214141_);" d="M213.423,173.915
				c-0.405,0.217-0.657,0.639-0.657,1.098v45.486h-26.237v-44.716c0-0.329-0.13-0.644-0.361-0.877
				c-0.331-0.334-0.737-0.73-1.2-1.182c-3.742-3.652-12.505-12.204-11.053-18.172c0.565-2.321,2.725-4.162,6.397-5.494v7.639
				c0,0.688,0.558,1.246,1.246,1.246s1.246-0.558,1.246-1.246v-37.353c0-1.827,1.487-3.314,3.314-3.314
				c1.827,0,3.314,1.486,3.314,3.314v22.582v5.35v0.064c0,0.688,0.558,1.246,1.246,1.246c0.688,0,1.246-0.558,1.246-1.246v-0.064
				v-5.35c0-1.827,1.486-3.314,3.314-3.314c1.827,0,3.314,1.486,3.314,3.314v0.771v4.612v0.771c0,0.688,0.558,1.246,1.246,1.246
				c0.688,0,1.246-0.558,1.246-1.246v-0.771v-4.612c0-1.827,1.486-3.314,3.314-3.314c1.827,0,3.314,1.486,3.314,3.314v1.67v4.688
				c0,0.688,0.558,1.246,1.246,1.246c0.688,0,1.246-0.558,1.246-1.246v-4.688c0-1.827,1.486-3.314,3.314-3.314
				c1.827,0,3.314,1.487,3.314,3.314v21.064c0,0,0,0,0,0.001C216.791,171.962,213.551,173.843,213.423,173.915z"/>
			<g>
				<g>
					<g>
						
							<linearGradient id="SVGID_00000041257239398770535700000003162914482333361311_" gradientUnits="userSpaceOnUse" x1="216.0244" y1="176.2567" x2="216.0244" y2="227.4684">
							<stop  offset="0.0547" style="stop-color:#158C00"/>
							<stop  offset="0.208" style="stop-color:#50A400"/>
							<stop  offset="0.3574" style="stop-color:#84BA00"/>
							<stop  offset="0.4303" style="stop-color:#98C200"/>
							<stop  offset="0.4534" style="stop-color:#9FC612"/>
							<stop  offset="0.5416" style="stop-color:#B8D550"/>
							<stop  offset="0.629" style="stop-color:#CEE285"/>
							<stop  offset="0.7135" style="stop-color:#DFECB1"/>
							<stop  offset="0.7945" style="stop-color:#EDF4D3"/>
							<stop  offset="0.8711" style="stop-color:#F7FAEB"/>
							<stop  offset="0.9415" style="stop-color:#FDFEFA"/>
							<stop  offset="1" style="stop-color:#FFFFFF"/>
						</linearGradient>
						<path style="fill:url(#SVGID_00000041257239398770535700000003162914482333361311_);" d="M215.258,225.643v-49.97
							c1.293-0.983,4.025-3.714,4.025-9.241c0-0.688-0.558-1.246-1.246-1.246c-0.688,0-1.246,0.558-1.246,1.246
							c0,5.53-3.24,7.411-3.367,7.483c-0.405,0.217-0.657,0.639-0.657,1.098v50.63H215.258z"/>
						
							<linearGradient id="SVGID_00000032624724967843726330000011120365949373273001_" gradientUnits="userSpaceOnUse" x1="178.897" y1="176.2567" x2="178.897" y2="227.4684">
							<stop  offset="0.0547" style="stop-color:#158C00"/>
							<stop  offset="0.208" style="stop-color:#50A400"/>
							<stop  offset="0.3574" style="stop-color:#84BA00"/>
							<stop  offset="0.4303" style="stop-color:#98C200"/>
							<stop  offset="0.4534" style="stop-color:#9FC612"/>
							<stop  offset="0.5416" style="stop-color:#B8D550"/>
							<stop  offset="0.629" style="stop-color:#CEE285"/>
							<stop  offset="0.7135" style="stop-color:#DFECB1"/>
							<stop  offset="0.7945" style="stop-color:#EDF4D3"/>
							<stop  offset="0.8711" style="stop-color:#F7FAEB"/>
							<stop  offset="0.9415" style="stop-color:#FDFEFA"/>
							<stop  offset="1" style="stop-color:#FFFFFF"/>
						</linearGradient>
						<path style="fill:url(#SVGID_00000032624724967843726330000011120365949373273001_);" d="M183.228,175.508
							c0.295,0.288,0.567,0.553,0.809,0.793v49.342h2.492v-49.859c0-0.329-0.13-0.644-0.361-0.877
							c-0.331-0.334-0.737-0.73-1.2-1.182c-3.742-3.652-12.505-12.204-11.053-18.172c0.626-2.571,3.19-4.56,7.622-5.911
							c0.658-0.201,1.029-0.897,0.828-1.555c-0.201-0.658-0.897-1.029-1.555-0.828c-5.333,1.626-8.468,4.218-9.316,7.705
							C169.706,162.312,178.839,171.225,183.228,175.508z"/>
					</g>
					<g>
						
							<linearGradient id="SVGID_00000079449450697771973290000015281954187413309604_" gradientUnits="userSpaceOnUse" x1="186.1183" y1="176.2569" x2="186.1183" y2="227.4683">
							<stop  offset="0.0547" style="stop-color:#158C00"/>
							<stop  offset="0.208" style="stop-color:#50A400"/>
							<stop  offset="0.3574" style="stop-color:#84BA00"/>
							<stop  offset="0.4303" style="stop-color:#98C200"/>
							<stop  offset="0.4534" style="stop-color:#9FC612"/>
							<stop  offset="0.5416" style="stop-color:#B8D550"/>
							<stop  offset="0.629" style="stop-color:#CEE285"/>
							<stop  offset="0.7135" style="stop-color:#DFECB1"/>
							<stop  offset="0.7945" style="stop-color:#EDF4D3"/>
							<stop  offset="0.8711" style="stop-color:#F7FAEB"/>
							<stop  offset="0.9415" style="stop-color:#FDFEFA"/>
							<stop  offset="1" style="stop-color:#FFFFFF"/>
						</linearGradient>
						<path style="fill:url(#SVGID_00000079449450697771973290000015281954187413309604_);" d="M181.559,158.944
							c-0.688,0-1.246-0.558-1.246-1.246v-37.353c0-3.201,2.604-5.806,5.806-5.806s5.806,2.604,5.806,5.806v27.996
							c0,0.688-0.558,1.246-1.246,1.246c-0.688,0-1.246-0.558-1.246-1.246v-27.996c0-1.827-1.486-3.314-3.314-3.314
							c-1.827,0-3.314,1.486-3.314,3.314v37.353C182.805,158.386,182.247,158.944,181.559,158.944z"/>
					</g>
					<g>
						
							<linearGradient id="SVGID_00000085241293226925751390000007750548288518304410_" gradientUnits="userSpaceOnUse" x1="195.2377" y1="176.2566" x2="195.2377" y2="227.4682">
							<stop  offset="0.0547" style="stop-color:#158C00"/>
							<stop  offset="0.208" style="stop-color:#50A400"/>
							<stop  offset="0.3574" style="stop-color:#84BA00"/>
							<stop  offset="0.4303" style="stop-color:#98C200"/>
							<stop  offset="0.4534" style="stop-color:#9FC612"/>
							<stop  offset="0.5416" style="stop-color:#B8D550"/>
							<stop  offset="0.629" style="stop-color:#CEE285"/>
							<stop  offset="0.7135" style="stop-color:#DFECB1"/>
							<stop  offset="0.7945" style="stop-color:#EDF4D3"/>
							<stop  offset="0.8711" style="stop-color:#F7FAEB"/>
							<stop  offset="0.9415" style="stop-color:#FDFEFA"/>
							<stop  offset="1" style="stop-color:#FFFFFF"/>
						</linearGradient>
						<path style="fill:url(#SVGID_00000085241293226925751390000007750548288518304410_);" d="M199.798,149.555
							c-0.688,0-1.246-0.558-1.246-1.246v-5.382c0-1.827-1.486-3.314-3.314-3.314c-1.827,0-3.314,1.486-3.314,3.314v5.35
							c0,0.688-0.558,1.246-1.246,1.246c-0.688,0-1.246-0.558-1.246-1.246v-5.35c0-3.201,2.605-5.806,5.806-5.806
							c3.201,0,5.806,2.604,5.806,5.806v5.382C201.044,148.997,200.486,149.555,199.798,149.555z"/>
					</g>
					<g>
						
							<linearGradient id="SVGID_00000070814190533585248530000000677007521862815633_" gradientUnits="userSpaceOnUse" x1="204.3573" y1="176.2565" x2="204.3573" y2="227.468">
							<stop  offset="0.0547" style="stop-color:#158C00"/>
							<stop  offset="0.208" style="stop-color:#50A400"/>
							<stop  offset="0.3574" style="stop-color:#84BA00"/>
							<stop  offset="0.4303" style="stop-color:#98C200"/>
							<stop  offset="0.4534" style="stop-color:#9FC612"/>
							<stop  offset="0.5416" style="stop-color:#B8D550"/>
							<stop  offset="0.629" style="stop-color:#CEE285"/>
							<stop  offset="0.7135" style="stop-color:#DFECB1"/>
							<stop  offset="0.7945" style="stop-color:#EDF4D3"/>
							<stop  offset="0.8711" style="stop-color:#F7FAEB"/>
							<stop  offset="0.9415" style="stop-color:#FDFEFA"/>
							<stop  offset="1" style="stop-color:#FFFFFF"/>
						</linearGradient>
						<path style="fill:url(#SVGID_00000070814190533585248530000000677007521862815633_);" d="M208.917,151.301
							c-0.688,0-1.246-0.558-1.246-1.246v-6.358c0-1.827-1.487-3.314-3.314-3.314s-3.314,1.486-3.314,3.314v5.382
							c0,0.688-0.558,1.246-1.246,1.246c-0.688,0-1.246-0.558-1.246-1.246v-5.382c0-3.201,2.604-5.806,5.806-5.806
							s5.806,2.605,5.806,5.806v6.358C210.163,150.744,209.605,151.301,208.917,151.301z"/>
					</g>
					<g>
						
							<linearGradient id="SVGID_00000112621797374050389230000011166409986233877174_" gradientUnits="userSpaceOnUse" x1="213.4769" y1="176.2567" x2="213.4769" y2="227.4682">
							<stop  offset="0.0547" style="stop-color:#158C00"/>
							<stop  offset="0.208" style="stop-color:#50A400"/>
							<stop  offset="0.3574" style="stop-color:#84BA00"/>
							<stop  offset="0.4303" style="stop-color:#98C200"/>
							<stop  offset="0.4534" style="stop-color:#9FC612"/>
							<stop  offset="0.5416" style="stop-color:#B8D550"/>
							<stop  offset="0.629" style="stop-color:#CEE285"/>
							<stop  offset="0.7135" style="stop-color:#DFECB1"/>
							<stop  offset="0.7945" style="stop-color:#EDF4D3"/>
							<stop  offset="0.8711" style="stop-color:#F7FAEB"/>
							<stop  offset="0.9415" style="stop-color:#FDFEFA"/>
							<stop  offset="1" style="stop-color:#FFFFFF"/>
						</linearGradient>
						<path style="fill:url(#SVGID_00000112621797374050389230000011166409986233877174_);" d="M218.037,167.678
							c-0.688,0-1.246-0.558-1.246-1.246v-21.065c0-1.827-1.487-3.314-3.314-3.314s-3.314,1.486-3.314,3.314v4.688
							c0,0.688-0.558,1.246-1.246,1.246s-1.246-0.558-1.246-1.246v-4.688c0-3.201,2.604-5.806,5.806-5.806s5.806,2.605,5.806,5.806
							v21.065C219.283,167.12,218.725,167.678,218.037,167.678z"/>
					</g>
				</g>
				
					<linearGradient id="SVGID_00000072252188953825828130000010862834795348341182_" gradientUnits="userSpaceOnUse" x1="186.6634" y1="176.2567" x2="186.6634" y2="227.4684">
					<stop  offset="0.0547" style="stop-color:#158C00"/>
					<stop  offset="0.208" style="stop-color:#50A400"/>
					<stop  offset="0.3574" style="stop-color:#84BA00"/>
					<stop  offset="0.4303" style="stop-color:#98C200"/>
					<stop  offset="0.4534" style="stop-color:#9FC612"/>
					<stop  offset="0.5416" style="stop-color:#B8D550"/>
					<stop  offset="0.629" style="stop-color:#CEE285"/>
					<stop  offset="0.7135" style="stop-color:#DFECB1"/>
					<stop  offset="0.7945" style="stop-color:#EDF4D3"/>
					<stop  offset="0.8711" style="stop-color:#F7FAEB"/>
					<stop  offset="0.9415" style="stop-color:#FDFEFA"/>
					<stop  offset="1" style="stop-color:#FFFFFF"/>
				</linearGradient>
				<path style="fill:url(#SVGID_00000072252188953825828130000010862834795348341182_);" d="M186.653,119.152
					c0.65,0.325,0.685,0.899,0.771,2.612s0.3,3.382,0.3,4.239s-0.599,1.67-1.199,1.541c-0.599-0.128-1.028-0.813-0.899-2.012
					c0.128-1.199,0.3-2.783,0.214-3.768C185.754,120.779,185.883,118.767,186.653,119.152z"/>
			</g>
		</g>
		<g>
			<g>
				<path style="fill:#FF7300;" d="M129.961,172.074l-4.369,27.042h-4.294l-4.369-27.042h3.578l2.938,20.639l2.938-20.639H129.961z"
					/>
				<path style="fill:#FF7300;" d="M136.59,199.116c-2.913,0-4.369-1.531-4.369-4.595v-17.815c0-3.088,1.443-4.632,4.331-4.632
					h3.465c2.888,0,4.332,1.544,4.332,4.632v17.815c0,3.063-1.457,4.595-4.369,4.595H136.59z M137.456,195.839h1.846
					c0.953,0,1.431-0.527,1.431-1.581v-17.325c0-1.055-0.54-1.582-1.619-1.582h-1.695c-1.055,0-1.582,0.527-1.582,1.582v17.325
					C135.836,195.312,136.376,195.839,137.456,195.839z"/>
				<path style="fill:#FF7300;" d="M154.066,175.351v23.766h-3.616v-23.766h-3.465v-3.276h10.546v3.276H154.066z"/>
				<path style="fill:#FF7300;" d="M160.355,199.116v-27.042h8.964v3.276h-5.349v8.211h4.746v3.276h-4.746v9.001h5.349v3.277
					H160.355z"/>
			</g>
			<g>
				<path style="fill:#003567;" d="M118.818,202.832v25.472h-3.026v-25.472H118.818z"/>
				<path style="fill:#003567;" d="M134.117,228.304h-3.068v-0.252l-5.044-15.3v15.552h-3.026v-25.472h3.026v0.252l5.044,15.3
					v-15.552h3.068V228.304z"/>
				<path style="fill:#003567;" d="M152.191,215.568c0,1.765-0.336,3.419-1.009,4.96c-0.672,1.541-1.583,2.886-2.731,4.035
					c-1.149,1.149-2.495,2.06-4.035,2.732c-1.542,0.672-3.195,1.009-4.96,1.009h-1.514v-25.472h1.514
					c1.765,0,3.418,0.336,4.96,1.009c1.54,0.672,2.886,1.583,4.035,2.732c1.148,1.149,2.06,2.495,2.731,4.035
					C151.855,212.15,152.191,213.802,152.191,215.568z M140.968,225.152c1.148-0.168,2.221-0.539,3.216-1.114
					c0.994-0.574,1.863-1.288,2.605-2.144c0.742-0.855,1.324-1.821,1.745-2.9c0.42-1.079,0.63-2.221,0.63-3.426
					c0-1.205-0.21-2.347-0.63-3.426c-0.421-1.078-1.003-2.045-1.745-2.9c-0.742-0.854-1.611-1.569-2.605-2.144
					c-0.995-0.574-2.067-0.946-3.216-1.114V225.152z"/>
				<path style="fill:#003567;" d="M159.125,202.832v25.472h-3.026v-25.472H159.125z"/>
				<path style="fill:#003567;" d="M171.357,228.304v-5.254h-5.044v5.254h-3.026V208.38c0-0.757,0.148-1.471,0.441-2.143
					c0.294-0.673,0.693-1.261,1.198-1.766c0.504-0.504,1.093-0.904,1.766-1.198c0.672-0.295,1.387-0.441,2.144-0.441
					c0.756,0,1.477,0.147,2.164,0.441c0.686,0.294,1.282,0.693,1.787,1.198c0.504,0.504,0.903,1.093,1.197,1.766
					c0.295,0.672,0.441,1.387,0.441,2.143v19.923H171.357z M171.357,219.982V208.38c0-0.7-0.245-1.296-0.735-1.787
					c-0.49-0.49-1.086-0.735-1.786-0.735c-0.701,0-1.297,0.246-1.787,0.735c-0.49,0.491-0.735,1.086-0.735,1.787v11.601H171.357z"/>
			</g>
			<g>
				<path style="fill:#05800E;" d="M104.775,238.346h1.088v1.718c-0.48,0.536-1.146,0.803-1.995,0.803
					c-0.711,0-1.308-0.235-1.79-0.706c-0.482-0.471-0.724-1.066-0.724-1.784c0-0.718,0.245-1.317,0.737-1.797
					c0.491-0.48,1.085-0.721,1.78-0.721c0.694,0,1.299,0.229,1.811,0.686l-0.561,0.81c-0.217-0.189-0.417-0.319-0.6-0.391
					c-0.182-0.071-0.38-0.107-0.592-0.107c-0.411,0-0.758,0.14-1.039,0.419c-0.281,0.28-0.423,0.648-0.423,1.105
					s0.136,0.823,0.405,1.098c0.271,0.275,0.593,0.412,0.967,0.412c0.374,0,0.686-0.071,0.935-0.214V238.346z"/>
				<path style="fill:#05800E;" d="M111.84,235.97v0.963h-2.41v0.997h2.168v0.921h-2.168v1.004h2.486v0.956h-3.567v-4.842H111.84z"
					/>
				<path style="fill:#05800E;" d="M117.79,235.97h1.08v4.842h-1.08l-2.307-3.034v3.034h-1.081v-4.842h1.012l2.376,3.117V235.97z"/>
				<path style="fill:#05800E;" d="M125.076,235.97v0.963h-2.41v0.997h2.168v0.921h-2.168v1.004h2.486v0.956h-3.567v-4.842H125.076z
					"/>
				<path style="fill:#05800E;" d="M131.567,237.577c0,0.776-0.308,1.277-0.922,1.503l1.227,1.732h-1.33l-1.073-1.545h-0.748v1.545
					h-1.081v-4.842h1.836c0.752,0,1.289,0.127,1.61,0.381C131.406,236.605,131.567,237.014,131.567,237.577z M130.264,238.152
					c0.134-0.12,0.201-0.31,0.201-0.571c0-0.261-0.069-0.44-0.208-0.537c-0.139-0.097-0.381-0.145-0.727-0.145h-0.811v1.434h0.789
					C129.878,238.332,130.13,238.272,130.264,238.152z"/>
				<path style="fill:#05800E;" d="M137.648,240.812l-0.45-1.046h-2.029l-0.45,1.046h-1.15l2.092-4.842h1.046l2.092,4.842H137.648z
					 M136.186,237.411l-0.609,1.406h1.212L136.186,237.411z"/>
				<path style="fill:#05800E;" d="M140.882,240.812v-4.842h1.081v3.879h2.063v0.963H140.882z"/>
				<path style="fill:#05800E;" d="M153.183,235.97v0.963h-2.41v0.997h2.168v0.921h-2.168v1.004h2.486v0.956h-3.566v-4.842H153.183z
					"/>
				<path style="fill:#05800E;" d="M155.746,240.812v-4.842h1.08v3.879h2.064v0.963H155.746z"/>
				<path style="fill:#05800E;" d="M164.695,235.97v0.963h-2.41v0.997h2.168v0.921h-2.168v1.004h2.486v0.956h-3.566v-4.842H164.695z
					"/>
				<path style="fill:#05800E;" d="M169.481,239.856c0.531,0,0.966-0.21,1.303-0.63l0.692,0.713
					c-0.55,0.619-1.197,0.928-1.942,0.928c-0.746,0-1.36-0.235-1.843-0.706c-0.482-0.471-0.724-1.066-0.724-1.784
					c0-0.718,0.246-1.317,0.737-1.797c0.492-0.48,1.094-0.721,1.805-0.721c0.794,0,1.459,0.303,1.995,0.908l-0.672,0.762
					c-0.342-0.425-0.767-0.637-1.275-0.637c-0.406,0-0.753,0.133-1.042,0.398c-0.289,0.266-0.433,0.623-0.433,1.073
					c0,0.451,0.136,0.812,0.408,1.084C168.763,239.72,169.093,239.856,169.481,239.856z"/>
				<path style="fill:#05800E;" d="M175.902,236.905v3.907h-1.08v-3.907h-1.372v-0.935h3.824v0.935H175.902z"/>
				<path style="fill:#05800E;" d="M179.587,235.97h1.08v4.842h-1.08V235.97z"/>
				<path style="fill:#05800E;" d="M187.455,240.143c-0.49,0.478-1.093,0.717-1.808,0.717c-0.716,0-1.319-0.239-1.809-0.717
					c-0.489-0.478-0.733-1.072-0.733-1.784c0-0.711,0.244-1.306,0.733-1.783c0.489-0.478,1.093-0.717,1.809-0.717
					c0.715,0,1.317,0.239,1.808,0.717c0.489,0.478,0.734,1.072,0.734,1.783C188.19,239.071,187.945,239.665,187.455,240.143z
					 M187.088,238.363c0-0.432-0.139-0.8-0.416-1.104c-0.276-0.305-0.617-0.457-1.021-0.457s-0.744,0.152-1.021,0.457
					c-0.277,0.305-0.416,0.673-0.416,1.104c0,0.432,0.139,0.799,0.416,1.102c0.277,0.302,0.617,0.454,1.021,0.454
					s0.745-0.151,1.021-0.454C186.949,239.162,187.088,238.795,187.088,238.363z"/>
				<path style="fill:#05800E;" d="M194.015,235.97h1.08v4.842h-1.08l-2.307-3.034v3.034h-1.081v-4.842h1.012l2.376,3.117V235.97z"
					/>
			</g>
		</g>
	</g>
</g>
</svg>
